%TF.GenerationSoftware,KiCad,Pcbnew,7.0.10*%
%TF.CreationDate,2024-12-31T06:45:42+09:00*%
%TF.ProjectId,20241117_RelayModule_v2,32303234-3131-4313-975f-52656c61794d,rev?*%
%TF.SameCoordinates,Original*%
%TF.FileFunction,Drillmap*%
%TF.FilePolarity,Positive*%
%FSLAX45Y45*%
G04 Gerber Fmt 4.5, Leading zero omitted, Abs format (unit mm)*
G04 Created by KiCad (PCBNEW 7.0.10) date 2024-12-31 06:45:42*
%MOMM*%
%LPD*%
G01*
G04 APERTURE LIST*
%ADD10C,0.100000*%
%ADD11C,0.200000*%
G04 APERTURE END LIST*
D10*
X15270000Y-14390000D02*
G75*
G03*
X14950000Y-14390000I-160000J0D01*
G01*
X14950000Y-14390000D02*
G75*
G03*
X15270000Y-14390000I160000J0D01*
G01*
D11*
X14510000Y-4990000D02*
X24510000Y-4990000D01*
X24510000Y-14990000D01*
X14510000Y-14990000D01*
X14510000Y-4990000D01*
D10*
X24070000Y-14387500D02*
G75*
G03*
X23750000Y-14387500I-160000J0D01*
G01*
X23750000Y-14387500D02*
G75*
G03*
X24070000Y-14387500I160000J0D01*
G01*
X24070000Y-5590000D02*
G75*
G03*
X23750000Y-5590000I-160000J0D01*
G01*
X23750000Y-5590000D02*
G75*
G03*
X24070000Y-5590000I160000J0D01*
G01*
X15270000Y-5590000D02*
G75*
G03*
X14950000Y-5590000I-160000J0D01*
G01*
X14950000Y-5590000D02*
G75*
G03*
X15270000Y-5590000I160000J0D01*
G01*
D11*
X14760777Y-15311484D02*
X14760777Y-15111484D01*
X14760777Y-15111484D02*
X14808396Y-15111484D01*
X14808396Y-15111484D02*
X14836967Y-15121008D01*
X14836967Y-15121008D02*
X14856015Y-15140055D01*
X14856015Y-15140055D02*
X14865539Y-15159103D01*
X14865539Y-15159103D02*
X14875062Y-15197198D01*
X14875062Y-15197198D02*
X14875062Y-15225769D01*
X14875062Y-15225769D02*
X14865539Y-15263865D01*
X14865539Y-15263865D02*
X14856015Y-15282912D01*
X14856015Y-15282912D02*
X14836967Y-15301960D01*
X14836967Y-15301960D02*
X14808396Y-15311484D01*
X14808396Y-15311484D02*
X14760777Y-15311484D01*
X14960777Y-15311484D02*
X14960777Y-15178150D01*
X14960777Y-15216246D02*
X14970301Y-15197198D01*
X14970301Y-15197198D02*
X14979824Y-15187674D01*
X14979824Y-15187674D02*
X14998872Y-15178150D01*
X14998872Y-15178150D02*
X15017920Y-15178150D01*
X15084586Y-15311484D02*
X15084586Y-15178150D01*
X15084586Y-15111484D02*
X15075062Y-15121008D01*
X15075062Y-15121008D02*
X15084586Y-15130531D01*
X15084586Y-15130531D02*
X15094110Y-15121008D01*
X15094110Y-15121008D02*
X15084586Y-15111484D01*
X15084586Y-15111484D02*
X15084586Y-15130531D01*
X15208396Y-15311484D02*
X15189348Y-15301960D01*
X15189348Y-15301960D02*
X15179824Y-15282912D01*
X15179824Y-15282912D02*
X15179824Y-15111484D01*
X15313158Y-15311484D02*
X15294110Y-15301960D01*
X15294110Y-15301960D02*
X15284586Y-15282912D01*
X15284586Y-15282912D02*
X15284586Y-15111484D01*
X15541729Y-15311484D02*
X15541729Y-15111484D01*
X15541729Y-15111484D02*
X15608396Y-15254341D01*
X15608396Y-15254341D02*
X15675062Y-15111484D01*
X15675062Y-15111484D02*
X15675062Y-15311484D01*
X15856015Y-15311484D02*
X15856015Y-15206722D01*
X15856015Y-15206722D02*
X15846491Y-15187674D01*
X15846491Y-15187674D02*
X15827443Y-15178150D01*
X15827443Y-15178150D02*
X15789348Y-15178150D01*
X15789348Y-15178150D02*
X15770301Y-15187674D01*
X15856015Y-15301960D02*
X15836967Y-15311484D01*
X15836967Y-15311484D02*
X15789348Y-15311484D01*
X15789348Y-15311484D02*
X15770301Y-15301960D01*
X15770301Y-15301960D02*
X15760777Y-15282912D01*
X15760777Y-15282912D02*
X15760777Y-15263865D01*
X15760777Y-15263865D02*
X15770301Y-15244817D01*
X15770301Y-15244817D02*
X15789348Y-15235293D01*
X15789348Y-15235293D02*
X15836967Y-15235293D01*
X15836967Y-15235293D02*
X15856015Y-15225769D01*
X15951253Y-15178150D02*
X15951253Y-15378150D01*
X15951253Y-15187674D02*
X15970301Y-15178150D01*
X15970301Y-15178150D02*
X16008396Y-15178150D01*
X16008396Y-15178150D02*
X16027443Y-15187674D01*
X16027443Y-15187674D02*
X16036967Y-15197198D01*
X16036967Y-15197198D02*
X16046491Y-15216246D01*
X16046491Y-15216246D02*
X16046491Y-15273388D01*
X16046491Y-15273388D02*
X16036967Y-15292436D01*
X16036967Y-15292436D02*
X16027443Y-15301960D01*
X16027443Y-15301960D02*
X16008396Y-15311484D01*
X16008396Y-15311484D02*
X15970301Y-15311484D01*
X15970301Y-15311484D02*
X15951253Y-15301960D01*
X16132205Y-15292436D02*
X16141729Y-15301960D01*
X16141729Y-15301960D02*
X16132205Y-15311484D01*
X16132205Y-15311484D02*
X16122682Y-15301960D01*
X16122682Y-15301960D02*
X16132205Y-15292436D01*
X16132205Y-15292436D02*
X16132205Y-15311484D01*
X16132205Y-15187674D02*
X16141729Y-15197198D01*
X16141729Y-15197198D02*
X16132205Y-15206722D01*
X16132205Y-15206722D02*
X16122682Y-15197198D01*
X16122682Y-15197198D02*
X16132205Y-15187674D01*
X16132205Y-15187674D02*
X16132205Y-15206722D01*
M02*
