M48
; DRILL file {KiCad 7.0.10} date Tue Dec 31 06:45:41 2024
; FORMAT={-:-/ absolute / metric / decimal}
; #@! TF.CreationDate,2024-12-31T06:45:41+09:00
; #@! TF.GenerationSoftware,Kicad,Pcbnew,7.0.10
; #@! TF.FileFunction,Plated,1,2,PTH
FMAT,2
METRIC
; #@! TA.AperFunction,Plated,PTH,ViaDrill
T1C0.400
; #@! TA.AperFunction,Plated,PTH,ComponentDrill
T2C0.750
; #@! TA.AperFunction,Plated,PTH,ComponentDrill
T3C0.762
; #@! TA.AperFunction,Plated,PTH,ComponentDrill
T4C0.800
; #@! TA.AperFunction,Plated,PTH,ComponentDrill
T5C1.000
; #@! TA.AperFunction,Plated,PTH,ComponentDrill
T6C1.700
%
G90
G05
T1
X151.15Y-85.85
X151.55Y-88.55
X151.65Y-105.525
X157.925Y-88.425
X157.95Y-85.9
X158.9Y-72.325
X160.925Y-61.175
X162.125Y-111.2
X163.45Y-81.175
X168.85Y-86.0
X169.1Y-88.625
X171.75Y-143.3
X173.3Y-78.125
X175.7Y-128.275
X177.275Y-72.45
X179.025Y-124.7
X179.325Y-134.65
X179.375Y-137.8
X180.35Y-116.2
X181.175Y-119.875
X183.8Y-126.6
X184.625Y-129.75
X184.775Y-84.25
X186.375Y-142.6
X186.85Y-119.9
X187.075Y-116.3
X188.525Y-128.525
X188.65Y-134.725
X189.35Y-141.15
X195.075Y-82.375
X195.175Y-136.45
X195.475Y-109.775
X197.325Y-116.5
X197.4Y-113.225
X201.425Y-102.275
X202.475Y-108.35
X208.075Y-116.7
X212.525Y-82.425
X212.6Y-119.4
X214.55Y-105.5
X219.225Y-111.95
X220.65Y-58.825
X224.425Y-109.65
X224.7Y-84.55
X228.35Y-72.0
T2
X191.95Y-125.155
X191.95Y-126.425
X191.95Y-127.695
X192.05Y-138.145
X192.05Y-139.415
X192.05Y-140.685
X192.28Y-112.005
X192.28Y-113.275
X192.28Y-114.545
X202.05Y-112.195
X202.05Y-113.465
X202.05Y-114.735
X202.15Y-124.995
X202.15Y-126.265
X202.15Y-127.535
X202.3Y-138.195
X202.3Y-139.465
X202.3Y-140.735
T3
X158.65Y-79.025
X158.65Y-91.025
X164.65Y-77.025
X168.275Y-58.77
X168.275Y-70.77
X170.65Y-79.025
X170.65Y-91.025
X174.275Y-56.77
X176.55Y-79.025
X176.55Y-91.025
X180.275Y-58.77
X180.275Y-70.77
X182.55Y-77.025
X186.025Y-58.82
X186.025Y-70.82
X188.55Y-79.025
X188.55Y-91.025
X192.025Y-56.82
X194.925Y-78.77
X194.925Y-90.77
X198.025Y-58.82
X198.025Y-70.82
X200.925Y-76.77
X204.0Y-58.725
X204.0Y-70.725
X206.925Y-78.77
X206.925Y-90.77
X210.0Y-56.725
X216.0Y-58.725
X216.0Y-70.725
T4
X159.025Y-105.37
X161.565Y-105.37
X168.505Y-105.22
X168.745Y-96.94
X168.745Y-99.48
X171.045Y-105.22
X176.695Y-105.47
X179.235Y-105.47
X180.445Y-97.17
X180.445Y-99.71
X185.745Y-97.07
X185.745Y-99.61
X186.075Y-105.07
X188.615Y-105.07
X190.71Y-144.595
X190.86Y-131.505
X191.06Y-118.295
X193.25Y-144.595
X193.4Y-131.505
X193.6Y-118.295
X195.135Y-105.12
X197.675Y-105.12
X198.375Y-97.11
X198.375Y-99.65
X200.73Y-118.545
X200.96Y-131.745
X201.185Y-144.645
X203.27Y-118.545
X203.5Y-131.745
X203.725Y-144.645
X204.125Y-97.19
X204.125Y-99.73
X204.305Y-104.97
X206.845Y-104.97
X216.475Y-97.32
X216.475Y-99.86
T5
X155.65Y-124.645
X155.65Y-127.145
X168.55Y-130.095
X168.55Y-132.595
X168.85Y-119.745
X168.85Y-122.245
X168.925Y-140.795
X168.925Y-143.295
X179.1Y-119.895
X179.1Y-122.395
X179.25Y-129.795
X179.25Y-132.295
X179.425Y-140.445
X179.425Y-142.945
X222.35Y-128.225
X222.35Y-130.725
X222.7Y-115.325
X222.7Y-117.825
X223.275Y-101.775
X223.275Y-104.275
X223.325Y-88.525
X223.325Y-91.025
X223.825Y-77.025
X223.825Y-79.525
X224.125Y-65.3
X224.125Y-67.8
X235.45Y-128.15
X235.45Y-130.65
X235.675Y-114.7
X235.675Y-117.2
X235.95Y-101.45
X235.95Y-103.95
X236.15Y-89.025
X236.15Y-91.525
X236.725Y-77.55
X236.725Y-80.05
X236.8Y-65.35
X236.8Y-67.85
T6
X153.75Y-65.265
X153.75Y-69.225
M30
