G04 #@! TF.GenerationSoftware,KiCad,Pcbnew,7.0.10*
G04 #@! TF.CreationDate,2024-12-31T06:45:35+09:00*
G04 #@! TF.ProjectId,20241117_RelayModule_v2,32303234-3131-4313-975f-52656c61794d,rev?*
G04 #@! TF.SameCoordinates,Original*
G04 #@! TF.FileFunction,Soldermask,Bot*
G04 #@! TF.FilePolarity,Negative*
%FSLAX46Y46*%
G04 Gerber Fmt 4.6, Leading zero omitted, Abs format (unit mm)*
G04 Created by KiCad (PCBNEW 7.0.10) date 2024-12-31 06:45:35*
%MOMM*%
%LPD*%
G01*
G04 APERTURE LIST*
G04 Aperture macros list*
%AMRoundRect*
0 Rectangle with rounded corners*
0 $1 Rounding radius*
0 $2 $3 $4 $5 $6 $7 $8 $9 X,Y pos of 4 corners*
0 Add a 4 corners polygon primitive as box body*
4,1,4,$2,$3,$4,$5,$6,$7,$8,$9,$2,$3,0*
0 Add four circle primitives for the rounded corners*
1,1,$1+$1,$2,$3*
1,1,$1+$1,$4,$5*
1,1,$1+$1,$6,$7*
1,1,$1+$1,$8,$9*
0 Add four rect primitives between the rounded corners*
20,1,$1+$1,$2,$3,$4,$5,0*
20,1,$1+$1,$4,$5,$6,$7,0*
20,1,$1+$1,$6,$7,$8,$9,0*
20,1,$1+$1,$8,$9,$2,$3,0*%
G04 Aperture macros list end*
%ADD10C,1.524000*%
%ADD11RoundRect,0.250000X-0.750000X0.600000X-0.750000X-0.600000X0.750000X-0.600000X0.750000X0.600000X0*%
%ADD12O,2.000000X1.700000*%
%ADD13R,1.500000X1.050000*%
%ADD14O,1.500000X1.050000*%
%ADD15RoundRect,0.250000X0.750000X-0.600000X0.750000X0.600000X-0.750000X0.600000X-0.750000X-0.600000X0*%
%ADD16C,1.600000*%
%ADD17O,1.600000X1.600000*%
%ADD18RoundRect,0.250001X-1.099999X1.099999X-1.099999X-1.099999X1.099999X-1.099999X1.099999X1.099999X0*%
%ADD19C,2.700000*%
G04 APERTURE END LIST*
D10*
X180275000Y-58770000D03*
X174275000Y-56770000D03*
X168275000Y-58770000D03*
X180275000Y-70770000D03*
X168275000Y-70770000D03*
D11*
X155650000Y-124645000D03*
D12*
X155650000Y-127145000D03*
D11*
X168550000Y-130095000D03*
D12*
X168550000Y-132595000D03*
D10*
X216000000Y-58725000D03*
X210000000Y-56725000D03*
X204000000Y-58725000D03*
X216000000Y-70725000D03*
X204000000Y-70725000D03*
D13*
X202300000Y-140735000D03*
D14*
X202300000Y-139465000D03*
X202300000Y-138195000D03*
D11*
X179100000Y-119895000D03*
D12*
X179100000Y-122395000D03*
D15*
X222700000Y-117825000D03*
D12*
X222700000Y-115325000D03*
D16*
X200730000Y-118545000D03*
D17*
X203270000Y-118545000D03*
D16*
X200960000Y-131745000D03*
D17*
X203500000Y-131745000D03*
D15*
X235950000Y-103950000D03*
D12*
X235950000Y-101450000D03*
D13*
X202150000Y-127535000D03*
D14*
X202150000Y-126265000D03*
X202150000Y-124995000D03*
D13*
X191950000Y-127695000D03*
D14*
X191950000Y-126425000D03*
X191950000Y-125155000D03*
D16*
X176695000Y-105470000D03*
D17*
X179235000Y-105470000D03*
D18*
X153750000Y-65265000D03*
D19*
X153750000Y-69225000D03*
D11*
X179250000Y-129795000D03*
D12*
X179250000Y-132295000D03*
D15*
X223325000Y-91025000D03*
D12*
X223325000Y-88525000D03*
D16*
X191060000Y-118295000D03*
D17*
X193600000Y-118295000D03*
D16*
X180445000Y-97170000D03*
D17*
X180445000Y-99710000D03*
D12*
X224125000Y-65300000D03*
D15*
X224125000Y-67800000D03*
D13*
X192050000Y-140685000D03*
D14*
X192050000Y-139415000D03*
X192050000Y-138145000D03*
D10*
X206925000Y-78770000D03*
X200925000Y-76770000D03*
X194925000Y-78770000D03*
X206925000Y-90770000D03*
X194925000Y-90770000D03*
D15*
X236800000Y-67850000D03*
D12*
X236800000Y-65350000D03*
D15*
X223275000Y-104275000D03*
D12*
X223275000Y-101775000D03*
D16*
X216475000Y-97320000D03*
D17*
X216475000Y-99860000D03*
D16*
X159025000Y-105370000D03*
D17*
X161565000Y-105370000D03*
D16*
X185745000Y-97070000D03*
D17*
X185745000Y-99610000D03*
D11*
X168925000Y-140795000D03*
D12*
X168925000Y-143295000D03*
D16*
X201185000Y-144645000D03*
D17*
X203725000Y-144645000D03*
D16*
X204125000Y-97190000D03*
D17*
X204125000Y-99730000D03*
D10*
X198025000Y-58820000D03*
X192025000Y-56820000D03*
X186025000Y-58820000D03*
X198025000Y-70820000D03*
X186025000Y-70820000D03*
D15*
X236150000Y-91525000D03*
D12*
X236150000Y-89025000D03*
D11*
X168850000Y-119745000D03*
D12*
X168850000Y-122245000D03*
D15*
X223825000Y-79525000D03*
D12*
X223825000Y-77025000D03*
D13*
X192280000Y-114545000D03*
D14*
X192280000Y-113275000D03*
X192280000Y-112005000D03*
D13*
X202050000Y-114735000D03*
D14*
X202050000Y-113465000D03*
X202050000Y-112195000D03*
D16*
X190860000Y-131505000D03*
D17*
X193400000Y-131505000D03*
D10*
X170650000Y-79025000D03*
X164650000Y-77025000D03*
X158650000Y-79025000D03*
X170650000Y-91025000D03*
X158650000Y-91025000D03*
X188550000Y-79025000D03*
X182550000Y-77025000D03*
X176550000Y-79025000D03*
X188550000Y-91025000D03*
X176550000Y-91025000D03*
D16*
X206845000Y-104970000D03*
D17*
X204305000Y-104970000D03*
D16*
X190710000Y-144595000D03*
D17*
X193250000Y-144595000D03*
D15*
X235450000Y-130650000D03*
D12*
X235450000Y-128150000D03*
D15*
X222350000Y-130725000D03*
D12*
X222350000Y-128225000D03*
D16*
X198375000Y-97110000D03*
D17*
X198375000Y-99650000D03*
D16*
X195135000Y-105120000D03*
D17*
X197675000Y-105120000D03*
D15*
X236725000Y-80050000D03*
D12*
X236725000Y-77550000D03*
D16*
X188615000Y-105070000D03*
D17*
X186075000Y-105070000D03*
D15*
X235675000Y-117200000D03*
D12*
X235675000Y-114700000D03*
D16*
X168745000Y-96940000D03*
D17*
X168745000Y-99480000D03*
D11*
X179425000Y-140445000D03*
D12*
X179425000Y-142945000D03*
D16*
X171045000Y-105220000D03*
D17*
X168505000Y-105220000D03*
M02*
